<?xml version="1.0" encoding="UTF-8" standalone="no"?>
<!-- Generator: Adobe Illustrator 18.0.0, SVG Export Plug-In . SVG Version: 6.00 Build 0)  -->

<svg
   xmlns:dc="http://purl.org/dc/elements/1.1/"
   xmlns:cc="http://creativecommons.org/ns#"
   xmlns:rdf="http://www.w3.org/1999/02/22-rdf-syntax-ns#"
   xmlns:svg="http://www.w3.org/2000/svg"
   xmlns="http://www.w3.org/2000/svg"
   xmlns:sodipodi="http://sodipodi.sourceforge.net/DTD/sodipodi-0.dtd"
   xmlns:inkscape="http://www.inkscape.org/namespaces/inkscape"
   version="1.1"
   id="Capa_1"
   x="0px"
   y="0px"
   viewBox="0 0 481.219 481.219"
   style="enable-background:new 0 0 481.219 481.219;"
   xml:space="preserve"
   inkscape:version="0.91 r13725"
   sodipodi:docname="3d-creative-process (1).svg"><metadata
     id="metadata47"><rdf:RDF><cc:Work
         rdf:about=""><dc:format>image/svg+xml</dc:format><dc:type
           rdf:resource="http://purl.org/dc/dcmitype/StillImage" /></cc:Work></rdf:RDF></metadata><defs
     id="defs45"><inkscape:perspective
       sodipodi:type="inkscape:persp3d"
       inkscape:vp_x="838.05512 : 76.464883 : 1"
       inkscape:vp_y="0 : 999.99999 : 0"
       inkscape:vp_z="1319.2741 : 76.464883 : 1"
       inkscape:persp3d-origin="1078.6646 : -3.7382866 : 1"
       id="perspective4211" /><inkscape:perspective
       sodipodi:type="inkscape:persp3d"
       inkscape:vp_x="876.79733 : -1.2695452e-07 : 1"
       inkscape:vp_y="0 : 1000 : 0"
       inkscape:vp_z="1358.0163 : -1.2695452e-07 : 1"
       inkscape:persp3d-origin="1117.4068 : -80.20317 : 1"
       id="perspective4181" /></defs><sodipodi:namedview
     pagecolor="#ffffff"
     bordercolor="#666666"
     borderopacity="1"
     objecttolerance="10"
     gridtolerance="10"
     guidetolerance="10"
     inkscape:pageopacity="0"
     inkscape:pageshadow="2"
     inkscape:window-width="1918"
     inkscape:window-height="1013"
     id="namedview43"
     showgrid="false"
     inkscape:zoom="0.98084241"
     inkscape:cx="36.955725"
     inkscape:cy="226.10644"
     inkscape:window-x="0"
     inkscape:window-y="27"
     inkscape:window-maximized="0"
     inkscape:current-layer="Capa_1" /><rect
     style="opacity:1;fill:#685fff;fill-opacity:1;stroke:none;stroke-width:4.125;stroke-linecap:round;stroke-linejoin:round;stroke-miterlimit:4;stroke-dasharray:none;stroke-opacity:1"
     id="rect4215-7-9"
     width="214.46034"
     height="217.45319"
     x="-466.0434"
     y="-574.13263"
     transform="matrix(-0.88419299,0.46712178,-0.04205195,-0.99911543,0,0)" /><rect
     style="opacity:1;fill:#1f9fff;fill-opacity:1;stroke:none;stroke-width:4.125;stroke-linecap:round;stroke-linejoin:round;stroke-miterlimit:4;stroke-dasharray:none;stroke-opacity:1"
     id="rect4215-7"
     width="214.46034"
     height="217.45319"
     x="108.85992"
     y="-279.33615"
     transform="matrix(-0.04848574,0.99882387,-0.88116622,-0.47280662,0,0)" /><rect
     style="opacity:1;fill:#1fdcdc;fill-opacity:1;stroke:none;stroke-width:4.125;stroke-linecap:round;stroke-linejoin:round;stroke-miterlimit:4;stroke-dasharray:none;stroke-opacity:1"
     id="rect4215"
     width="214.46034"
     height="217.45319"
     x="153.67931"
     y="-128.62347"
     transform="matrix(0.85055131,0.52589208,-0.84024343,0.54220935,0,0)" /><path
     inkscape:connector-curvature="0"
     id="path5"
     d="M 437.87765,118.56908 243.51428,6.355542 c -2.6653,-1.537794 -5.9476,-1.537794 -8.6129,0 L 40.522352,118.55969 c -2.6653,1.53779 -4.306449,4.38161 -4.306449,7.46033 l 0.01879,229.01385 c 0,3.07558 1.641148,5.91784 4.304883,7.4572 L 234.88729,474.78761 c 1.33265,0.77046 2.82033,1.15569 4.30801,1.15569 1.48612,0 2.9738,-0.38523 4.30645,-1.15412 l 194.3759,-112.21041 c 2.6653,-1.5378 4.30645,-4.38162 4.30645,-7.45877 l 0,-229.09215 c 0,-3.07715 -1.64115,-5.92097 -4.30645,-7.45877 z M 239.20783,23.759861 416.3454,126.02785 239.20783,228.30054 62.053033,126.02159 239.20783,23.759861 Z M 53.443266,140.9407 230.59493,243.21965 230.57927,452.40347 53.460492,350.06187 53.443266,140.9407 Z M 424.9583,350.14487 247.80507,452.41443 l 0.0157,-209.19478 177.13757,-102.27269 0,209.19791 z" /><g
     id="g13" /><g
     id="g15" /><g
     id="g17" /><g
     id="g19" /><g
     id="g21" /><g
     id="g23" /><g
     id="g25" /><g
     id="g27" /><g
     id="g29" /><g
     id="g31" /><g
     id="g33" /><g
     id="g35" /><g
     id="g37" /><g
     id="g39" /><g
     id="g41" /></svg>